<svg width="177" height="317" viewBox="0 0 177 317" fill="none" xmlns="http://www.w3.org/2000/svg">
<path d="M18.0518 316.104C-69.2378 316.103 -140 245.341 -140 158.052C-140 70.7621 -69.2378 -2.14484e-05 18.0518 -1.38173e-05C30.2964 -1.27469e-05 42.2157 1.39318 53.6602 4.02831L52.1543 6.76561C41.181 4.30269 29.7685 2.99999 18.0518 2.99999C-67.5809 2.99998 -137 72.419 -137 158.052C-137 243.684 -67.581 313.103 18.0518 313.104C65.3095 313.104 107.628 291.961 136.067 258.619L138.54 260.344C109.549 294.458 66.3285 316.104 18.0518 316.104ZM158.481 92.2373C147.211 68.2307 129.965 47.5875 108.661 32.2197L110.117 29.5713C132.008 45.2855 149.719 66.4539 161.259 91.0908L158.481 92.2373ZM160.216 220.041C168.505 201.057 173.104 180.091 173.104 158.052C173.104 143.458 171.086 129.336 167.317 115.947L170.11 114.794C174.014 128.542 176.104 143.053 176.104 158.052C176.104 180.731 171.326 202.294 162.724 221.79L160.216 220.041Z" fill="#ED5F77"/>
<path d="M22.4841 21.0105C-52.3144 18.494 -115.443 76.5944 -118.917 151.574L-118.988 153.343C-121.505 228.141 -63.4053 291.27 11.5739 294.744L13.343 294.815C23.3288 295.151 33.1062 294.405 42.5618 292.684L41.1852 289.881C31.6503 291.553 21.7859 292.214 11.7127 291.747C-62.2018 288.323 -119.345 225.627 -115.92 151.713C-112.496 77.7979 -49.8003 20.654 24.1144 24.0785C64.891 25.9678 100.562 45.8973 123.777 75.7963L126.328 74.1871C102.597 43.4904 66.0478 23.0182 24.2532 21.0817L22.4841 21.0105ZM136.486 220.354C125.805 240.603 110.113 257.715 91.1327 270.123L92.4655 272.838C112.047 260.111 128.227 242.494 139.206 221.629L136.486 220.354ZM143.131 110.166C149.508 126.864 152.629 145.119 151.748 164.114C151.166 176.694 148.865 188.788 145.085 200.18L147.82 201.462C151.572 190.25 153.923 178.371 154.653 166.021L154.745 164.253C155.655 144.619 152.383 125.759 145.718 108.535L143.131 110.166Z" fill="#ED5F77"/>
</svg>
