<svg width="100" height="30" viewBox="0 0 100 30" fill="none" xmlns="http://www.w3.org/2000/svg">
<path d="M70.2207 7.46755L69.8564 7.91468V22.0853L70.2207 22.5359L82.0544 24.919L82.5984 24.4701V5.53088L82.0544 5.08301L70.2207 7.46755ZM81.686 6.0874V23.9072L70.7738 21.7103V8.29216L81.686 6.0874Z" fill="#AD608E"/>
<path d="M0.461113 7.46191L0 7.91469V22.0853L0.461113 22.5415H14.6251L15.0887 22.0853V7.91493L14.6251 7.46216L0.461113 7.46191ZM14.1706 21.6316H0.915848V8.37433H14.1704L14.1706 21.6316Z" fill="#5B56A6"/>
<path d="M33.7215 2.78711L33.0635 3.19819V26.8037L33.7215 27.2075L43.1589 22.4999L43.4108 22.0854V7.91503L43.1589 7.50984L33.7215 2.78711ZM42.495 21.8031L33.9791 26.0596V3.93916L42.495 8.19954V21.8031Z" fill="#D35972"/>
<path d="M99.548 7.46191H85.3732L84.9194 7.91469V22.0853L85.3732 22.5415H99.548L100 22.0853V7.91493L99.548 7.46191ZM99.0834 21.6316H85.8328V8.37433H99.0834V21.6316Z" fill="#5B56A6"/>
<path d="M56.8415 7.50935L56.5864 7.91454V22.0852L56.8425 22.4997L66.2774 27.2072L66.9389 26.8035V3.19819L66.2774 2.78711L56.8415 7.50935ZM66.0231 3.93891V26.0593L57.5062 21.8029V8.1993L66.0231 3.93891Z" fill="#D35972"/>
<path d="M49.5474 29.1901H50.4639V0.80957H49.5474V29.1901Z" fill="#F25A55"/>
<path d="M29.2304 14.5074V21.7177L18.3157 23.9104V6.09231L29.2304 8.29387V10.1641H30.1438V7.92229L29.7768 7.47098L17.9508 5.08301L17.4009 5.53088V24.4701L17.9508 24.9229L29.7768 22.5401L30.1438 22.087V11.9193L29.2304 14.5074Z" fill="#AD608E"/>
<path d="M49.5475 11.6326V10.0432H47.8169L44.4105 19.6537H46.4792L47.7921 15.9315H49.5475V14.3872C49.1978 14.3897 48.6932 14.3841 48.3378 14.3841L49.2848 11.6407L49.5475 11.6326ZM51.2139 10.043H50.4722V11.6323C51.3282 11.6323 52.3718 11.6875 51.9016 12.998C51.635 13.7481 50.9647 14.1403 50.4722 14.2445V15.8348C52.1067 15.4868 53.5872 14.4544 54.1017 12.998C54.9627 10.561 53.3443 10.0572 51.2139 10.043ZM2.3855 19.7759L9.26442 10.1646H11.7162L11.7088 19.7759H9.67304L9.69831 17.7369H5.79822L4.35553 19.7759H2.3855ZM9.70836 16.1419L9.78194 12.0422H9.75423L6.89533 16.1419H9.70836ZM37.1765 19.7759H35.1135L38.5164 10.1646H40.5816L37.1765 19.7759ZM57.8353 19.7759L61.2357 10.1646H63.3034L60.4671 18.1792H65.009L64.4454 19.7759H57.8353ZM74.53 10.1646H80.9758L80.4117 11.7621H76.0316L75.2325 14.0112H79.3334L78.7683 15.6067H74.6659L73.7567 18.1792H78.2847L77.7235 19.7759H71.1276L74.53 10.1646ZM88.4198 19.7759H86.2043L91.3525 14.7959L89.837 10.1646H92.3793L93.1727 13.428L96.401 10.1646H98.6124L93.808 14.7843L95.3973 19.7759H92.8649L92.006 16.1547L88.4198 19.7759ZM24.4353 19.7759L23.4677 11.791L23.4309 11.8173L20.6127 19.7759H18.6826L22.0826 10.1646H25.1451L26.1296 17.7254L26.1659 17.6999L28.8345 10.1646H30.7653L27.3606 19.7761H24.4353V19.7759Z" fill="white"/>
</svg>
