<svg width="100" height="24" viewBox="0 0 100 24" fill="none" xmlns="http://www.w3.org/2000/svg">
<g clip-path="url(#clip0_278_925)">
<path d="M16.177 9.54295L17.083 3.42817C17.0873 3.39885 17.0834 3.36892 17.0717 3.34162C17.0599 3.31432 17.0408 3.29068 17.0163 3.27326C16.9919 3.25585 16.9631 3.24531 16.9329 3.2428C16.9028 3.24029 16.8726 3.24589 16.8455 3.259L12.2806 5.4676C12.8481 6.64988 13.1666 7.93217 13.2172 9.23785C12.7661 8.0344 12.0768 6.93028 11.1888 5.98905L6.09312 1.81805C6.06916 1.79844 6.04004 1.78585 6.00911 1.78175C5.97818 1.77764 5.9467 1.78217 5.91828 1.79482C5.88986 1.80748 5.86566 1.82774 5.84846 1.85328C5.83126 1.87881 5.82177 1.90859 5.82106 1.93919L5.70294 7.06773C7.71904 7.3215 9.60752 8.17451 11.1144 9.51202C12.6213 10.8495 13.6742 12.6074 14.1317 14.5492C13.033 12.5244 11.2417 10.9439 9.07254 10.0853C6.90337 9.22671 4.49499 9.14496 2.27045 9.85441L0.0997197 10.7796C0.072796 10.791 0.0494619 10.8093 0.0321015 10.8325C0.0147411 10.8557 0.00397679 10.883 0.000908348 10.9117C-0.0021601 10.9403 0.00257735 10.9692 0.0146366 10.9955C0.0266959 11.0217 0.0456448 11.0443 0.0695471 11.061L4.92363 14.455L4.01766 20.5698C4.01331 20.5991 4.01722 20.629 4.02897 20.6563C4.04071 20.6836 4.05984 20.7073 4.08429 20.7247C4.10874 20.7421 4.13758 20.7526 4.16769 20.7552C4.1978 20.7577 4.22804 20.7521 4.25514 20.739L9.90683 18.0046L15.0129 22.184C15.0367 22.2034 15.0656 22.216 15.0963 22.2202C15.127 22.2244 15.1583 22.22 15.1866 22.2077C15.2149 22.1953 15.2391 22.1754 15.2565 22.1502C15.2739 22.1251 15.2837 22.0956 15.2848 22.0652L15.5337 15.5484L21.0014 13.2181C21.0283 13.2066 21.0517 13.1883 21.069 13.1651C21.0864 13.1419 21.0972 13.1146 21.1002 13.086C21.1033 13.0574 21.0986 13.0285 21.0865 13.0022C21.0744 12.976 21.0555 12.9533 21.0316 12.9366L16.177 9.54295Z" fill="white"/>
<path d="M18.5093 16.5052L16.8255 17.4583L16.7852 19.734L20.3334 17.7254C20.3838 17.6969 20.4257 17.6558 20.4548 17.6064C20.4839 17.557 20.4992 17.5009 20.4992 17.4438V14.8506L18.5092 15.6986L18.5093 16.5052Z" fill="white"/>
<path d="M6.62891 21.0416L10.9721 23.5002V21.2473L8.77468 20.0034L6.62891 21.0416Z" fill="white"/>
<path d="M18.5094 9.57691L20.4994 10.9682V6.55517C20.4994 6.49809 20.484 6.44201 20.4549 6.39258C20.4258 6.34315 20.384 6.3021 20.3335 6.27356L18.182 5.05566L17.874 7.13417L18.5094 7.49386L18.5094 9.57691Z" fill="white"/>
<path d="M14.4761 2.95525L10.1387 0.5V2.75285L12.3304 3.99347L14.4761 2.95525Z" fill="white"/>
<path d="M2.5905 14.4221L0.600586 13.0308V17.4438C0.600587 17.5009 0.615913 17.557 0.645025 17.6064C0.674137 17.6558 0.716008 17.6969 0.76643 17.7254L2.91797 18.9433L3.22594 16.8649L2.59049 16.5052L2.5905 14.4221Z" fill="white"/>
<path d="M1.74124 8.66252L0.600586 9.14865V6.5554C0.600585 6.49832 0.61591 6.44225 0.645019 6.39281C0.674128 6.34338 0.715997 6.30233 0.766416 6.27379L4.37184 4.23291L4.37533 6.48378L2.59054 7.49408V8.3006L1.79894 8.63797L1.74124 8.66252Z" fill="white"/>
<path d="M58.4825 10.8013H57.6949V12.9691H58.4825C58.9037 12.9691 59.3077 13.1331 59.6055 13.4251C59.9033 13.7171 60.0706 14.1132 60.0706 14.5261C60.0706 14.9391 59.9033 15.3351 59.6055 15.6271C59.3077 15.9191 58.9037 16.0832 58.4825 16.0832H52.334L52.8868 18.251H58.4826C59.4902 18.251 60.4565 17.8585 61.169 17.16C61.8815 16.4614 62.2818 15.514 62.2818 14.5261C62.2818 13.5382 61.8815 12.5908 61.169 11.8923C60.4565 11.1937 59.4901 10.8013 58.4825 10.8013Z" fill="white"/>
<path d="M55.7195 12.9695H56.3702V10.8017H55.7195C55.3336 10.8017 54.9636 10.6514 54.6908 10.3839C54.418 10.1164 54.2647 9.75365 54.2647 9.37537C54.2647 8.99708 54.418 8.63429 54.6908 8.36681C54.9636 8.09932 55.3336 7.94905 55.7195 7.94905H61.1797L61.4557 5.78396V5.78125H55.7196C54.7474 5.78125 53.8149 6.15992 53.1274 6.83397C52.4399 7.50801 52.0537 8.42222 52.0537 9.37546C52.0537 10.3287 52.4399 11.2429 53.1274 11.917C53.8149 12.591 54.7472 12.9695 55.7195 12.9695Z" fill="white"/>
<path d="M96.2697 13.2362C98.4808 13.1007 99.8626 11.7459 99.8626 9.44261C99.8626 7.13934 98.2044 5.91997 95.5788 5.91997L89.084 5.91602V18.1562H91.295V7.9506L95.5789 7.9523C96.8226 7.9523 97.5135 8.49427 97.5135 9.44265C97.5135 10.391 96.8226 11.204 95.5403 11.2143L92.6217 11.2072V13.2363H93.7824L97.5135 18.1137H100.001L96.2697 13.2362Z" fill="white"/>
<path d="M82.3163 5.91943H79.5525L74.4395 18.1131H76.7887L80.9343 7.95171L83.09 13.2357H80.2226L79.3934 15.268H83.9191L85.0799 18.1132H87.4291L82.3163 5.91943Z" fill="white"/>
<path d="M71.8965 5.91943V7.95171H75.2683V5.91943H71.8965Z" fill="white"/>
<path d="M70.5677 5.91943H63.6582V7.95171H68.3565V18.1131H70.5676L70.5677 5.91943Z" fill="white"/>
<path d="M48.2359 7.57195L44.7241 5.58406L43.8691 5.1001V7.60323L47.1304 9.44931C47.2816 9.53493 47.4072 9.65807 47.4945 9.80636C47.5819 9.95465 47.6278 10.1229 47.6278 10.2941V13.7067C47.6278 13.878 47.5819 14.0462 47.4945 14.1945C47.4072 14.3428 47.2816 14.4659 47.1304 14.5515L43.8691 16.3976V18.9007L44.7241 18.4168L48.2359 16.4289C48.7227 16.1523 49.1269 15.7554 49.4082 15.2777C49.6895 14.8 49.838 14.2583 49.8389 13.7067V10.2941C49.838 9.74251 49.6894 9.20082 49.4081 8.72313C49.1268 8.24545 48.7227 7.8485 48.2359 7.57195Z" fill="white"/>
<path d="M42.544 16.3976L39.2827 14.5515C39.1315 14.4659 39.0059 14.3428 38.9186 14.1945C38.8312 14.0462 38.7853 13.878 38.7853 13.7067V10.2941C38.7853 10.1229 38.8312 9.95465 38.9186 9.80636C39.0059 9.65807 39.1315 9.53493 39.2827 9.44931L42.544 7.60323V5.1001L41.689 5.58406L38.1772 7.57195C37.6904 7.84851 37.2862 8.24545 37.0049 8.72314C36.7236 9.20082 36.5751 9.74251 36.5742 10.2941V13.7067C36.5751 14.2583 36.7236 14.8 37.0049 15.2777C37.2862 15.7554 37.6904 16.1523 38.1772 16.4289L41.689 18.4168L42.544 18.9007V16.3976Z" fill="white"/>
<path d="M26.7618 5.78369H24.1367L28.9734 13.7776V18.2486H31.4608V13.5064L26.7618 5.78369Z" fill="white"/>
<path d="M31.0039 10.1793L33.6723 5.78369H36.2979L32.2904 12.2872L31.0039 10.1793Z" fill="white"/>
</g>
<defs>
<clipPath id="clip0_278_925">
<rect width="100" height="23" fill="white" transform="translate(0 0.5)"/>
</clipPath>
</defs>
</svg>
